<?xml version="1.0" encoding="UTF-8" standalone="no"?>
<!-- Created with Inkscape (http://www.inkscape.org/) -->

<svg
   width="136.63054mm"
   height="118.19044mm"
   viewBox="0 0 136.63054 118.19044"
   version="1.1"
   id="svg1"
   xml:space="preserve"
   inkscape:version="1.4.3 (1:1.4.3+202512261035+0d15f75042)"
   sodipodi:docname="hero-cape.svg"
   xmlns:inkscape="http://www.inkscape.org/namespaces/inkscape"
   xmlns:sodipodi="http://sodipodi.sourceforge.net/DTD/sodipodi-0.dtd"
   xmlns="http://www.w3.org/2000/svg"
   xmlns:svg="http://www.w3.org/2000/svg"><sodipodi:namedview
     id="namedview1"
     pagecolor="#505050"
     bordercolor="#eeeeee"
     borderopacity="1"
     inkscape:showpageshadow="0"
     inkscape:pageopacity="0"
     inkscape:pagecheckerboard="0"
     inkscape:deskcolor="#505050"
     inkscape:document-units="mm"
     inkscape:zoom="1.0324986"
     inkscape:cx="349.15302"
     inkscape:cy="356.90121"
     inkscape:window-width="2560"
     inkscape:window-height="1368"
     inkscape:window-x="0"
     inkscape:window-y="0"
     inkscape:window-maximized="1"
     inkscape:current-layer="layer1" /><defs
     id="defs1" /><g
     inkscape:label="Layer 1"
     inkscape:groupmode="layer"
     id="layer1"><path
       style="fill:#ff0000;fill-opacity:1"
       d="m 118.24266,117.3752 c 1.24139,-2.97107 1.63707,-8.38267 0.83521,-11.42286 -2.23844,-8.486835 -12.19671,-15.826715 -24.604617,-18.135175 -0.87312,-0.16245 -2.138,-0.42735 -2.81083,-0.58868 l -1.22334,-0.29332 0.59004,-0.55386 c 10.518137,-9.87335 22.033577,-27.94688 27.831037,-43.68095 2.62439,-7.12248 4.6439,-15.567672 5.36926,-22.453172 0.29298,-2.78115 0.24583,-3.77374 -0.11894,-2.50375 -7.42173,25.840112 -28.535317,56.059032 -47.959617,68.642432 -1.20055,0.77773 -2.18259,1.4465 -2.18232,1.48615 2.7e-4,0.0397 2.94707,0.0812 6.54844,0.0924 9.25939,0.0287 14.75962,1.1052 20.712797,4.05387 4.58606,2.27153 9.2646,6.40759 11.06151,9.778945 l 0.86851,1.6295 -1.14119,0.48376 c -12.090667,5.12533 -24.473987,6.01306 -35.272437,2.5286 -7.18456,-2.31832 -12.48768,-5.88474 -19.84375,-13.345185 -2.03729,-2.0662 -4.71351,-4.50807 -5.94715,-5.42639 -12.77414,-9.50905 -30.20031,-8.93476 -47.9080804,1.57884 -3.29844,1.95838 -3.36769,1.94501 -2.73614,-0.5283 1.37289,-5.37662 7.07878,-13.4661 13.0597404,-18.51535 5.46757,-4.61584 8.47715,-6.75305 18.79309,-13.34561 20.5411,-13.12713 30.32917,-24.43632 39.96112,-46.171307 1.94718,-4.3939246 1.71583,-4.2701606 3.98344,-2.1310176 5.77073,5.4438176 12.95249,8.2921726 21.53981,8.5429026 4.787847,0.1398 5.006317,-0.0605 1.05834,-0.97044 -6.87023,-1.58341 -13.32587,-5.152705 -17.65474,-9.7612226 -2.98033,-3.17286 -3.42839,-4.502762 -1.79739,-5.334841 2.85112,-1.45453101 8.47751,-1.19933201 14.7396,0.668554 6.945587,2.071762 6.208607,2.003735 9.772017,0.902 9.08278,-2.80821401 14.04864,-3.29239501 17.40968,-1.69747501 1.13397,0.53810501 1.18541,1.01576701 0.25869,2.40242701 -2.546,3.809636 -9.40237,8.3900426 -15.58411,10.4109926 -2.50221,0.818015 -2.59205,0.990625 -0.62409,1.199095 7.15583,0.75802 15.01269,-1.961895 19.79734,-6.8535176 2.29454,-2.345837 2.46096,-2.220992 3.67231,2.7548326 3.91197,16.069135 7.36617,42.444677 7.88297,60.192707 0.56896,19.53915 -3.5681,34.184975 -12.07364,42.742505 -1.7013,1.7117 -4.85474,3.98147 -6.03372,4.34293 -0.59889,0.18361 -0.60232,0.17282 -0.22885,-0.72101 z"
       id="path1" /></g></svg>
